<svg xmlns="http://www.w3.org/2000/svg" viewBox="0 0 48 48" width="50px" height="50px">
  <path d="M 35 1 C 29.478 1 25 5.478 25 11 C 25 13.709 26.102031 16.144844 27.832031 17.964844 C 27.842031 17.975844 35 25.138672 35 25.138672 C 35 25.138672 42.157969 17.975844 42.167969 17.964844 C 43.897969 16.144844 45 13.709 45 11 C 45 5.478 40.522 1 35 1 z M 35 7 C 37.203 7 38.988281 8.7862813 38.988281 10.988281 C 38.988281 13.190281 37.202 14.976562 35 14.976562 C 32.798 14.976562 31.011719 13.190281 31.011719 10.988281 C 31.011719 8.7862813 32.797 7 35 7 z M 17 10 L 17 39 L 28 44 L 28 22.380859 C 25.69 20.070859 25.680156 20.059297 25.660156 20.029297 C 23.610156 17.879297 22.360312 15.170547 22.070312 12.310547 L 17 10 z M 14 11.150391 L 8.2109375 13.380859 C 6.2709375 14.130859 5 15.980781 5 18.050781 L 5 43.619141 L 14 40.160156 L 14 11.150391 z M 41 23.380859 L 35 29.380859 L 31 25.380859 L 31 44 L 37 44 C 39.21 44 41 42.21 41 40 L 41 23.380859 z" fill="#000000" />
</svg>